<svg xmlns="http://www.w3.org/2000/svg" xmlns:xlink="http://www.w3.org/1999/xlink" aria-hidden="true" role="img" class="iconify iconify--logos" width="35.93" height="32" preserveAspectRatio="xMidYMid meet" viewBox="0 0 256 228"><path fill="#00D8FF" d="M210.483 73.824a171.49 171.49 0 0 0-8.24-2.597c.465-1.9.893-3.777 1.273-5.621c6.238-30.281 2.16-54.676-11.769-62.708c-13.355-7.7-35.196.329-57.254 19.526a171.23 171.23 0 0 0-6.375 5.848a155.866 155.866 0 0 0-4.241-3.917C100.759 3.829 77.587-4.822 63.673 3.233C50.33 10.957 46.379 33.89 51.986 62.588a170.974 170.974 0 0 0 1.892 8.48c-3.28.932-6.445 1.924-9.474 2.98C17.309 83.498 0 98.307 0 113.668c0 15.865 18.582 31.778 46.812 41.427a145.52 145.52 0 0 0 6.921 2.165a167.467 167.467 0 0 0-2.01 9.138c-5.354 28.2-1.173 50.591 12.134 58.266c13.744 7.926 36.812-.22 59.273-19.855a145.567 145.567 0 0 0 5.342-4.923a168.064 168.064 0 0 0 6.92 6.314c21.758 18.722 43.246 26.282 56.54 18.586c13.731-7.949 18.194-32.003 12.4-61.268a145.016 145.016 0 0 0-1.535-6.842c1.62-.48 3.21-.974 4.76-1.488c29.348-9.723 48.443-25.443 48.443-41.52c0-15.417-17.868-30.326-45.517-39.844Zm-6.365 70.984c-1.4.463-2.836.91-4.3 1.345c-3.24-10.257-7.612-21.163-12.963-32.432c5.106-11 9.31-21.767 12.459-31.957a145.95 145.95 0 0 1 7.535 2.357c22.953 8.84 38.644 21.068 38.644 32.343c0 12.142-17.01 24.747-41.375 28.344ZM186.958 163.498c1.348 5.508 2.172 10.633 2.49 15.312c.672 9.928-1.168 17.473-4.778 19.547c-3.983 2.289-13.103-.476-23.628-8.498a139.18 139.18 0 0 1-6.279-5.728c7.635-8.49 15.064-18.282 21.895-29.022c8.007-1.166 15.525-2.738 22.3-4.611Zm-90.956 7.622c-4.806 6.837-9.562 12.957-14.155 18.26c-9.603 8.821-18.724 14.09-23.91 11.1c-5.553-3.203-7.587-14.208-5.066-29.283a139.47 139.47 0 0 1 1.82-8.266c6.866 1.612 14.322 2.865 22.152 3.837a209.71 209.71 0 0 0 19.159 4.352Zm-27.164-54.177c-2.197 3.81-4.282 7.586-6.245 11.307c-3.467-8.442-6.16-16.876-7.992-25.084a143.05 143.05 0 0 0 8.654-2.738c1.766 5.523 3.564 11.082 5.583 16.515Zm55.89-81.197c4.83 5.373 9.704 11.33 14.501 17.8c-4.765-.214-9.593-.33-14.464-.33c-4.987 0-9.938.126-14.825.356a199.082 199.082 0 0 1 14.788-17.826Zm-30.632 22.064a199.876 199.876 0 0 0-14.108 18.704a197.34 197.34 0 0 0-12.564 21.023a207.636 207.636 0 0 1-5.443-15.982a199.336 199.336 0 0 1 18.396-6.146c4.444-1.292 8.96-2.46 13.719-3.6Zm-15.24 72.398a191.56 191.56 0 0 0 5.126 15.135a197.79 197.79 0 0 1-17.923-5.877c-2.158-6.675-4.07-13.597-5.679-20.663c3.879 3.89 7.925 7.757 12.063 11.405c2.1 1.986 4.234 3.944 6.413 6Zm43.156 6.205a209.71 209.71 0 0 0 14.108-18.704a197.34 197.34 0 0 0 12.564-21.023a207.58 207.58 0 0 1 5.444 15.982a199.288 199.288 0 0 1-18.397 6.146c-4.444 1.292-8.96 2.46-13.719 3.6Zm15.24-72.398a191.56 191.56 0 0 0-5.126-15.135a197.79 197.79 0 0 1 17.923 5.877c2.158 6.675 4.07 13.597 5.679 20.663c-3.879-3.89-7.924-7.757-12.063-11.405c-2.1-1.986-4.234-3.944-6.413-6ZM65.086 128.365c-2.318-4.017-4.487-8.003-6.498-11.94c1.914-3.725 3.942-7.415 6.072-11.048c1.996 3.797 4.08 7.626 6.254 11.479a214.882 214.882 0 0 0-5.828 11.509ZM128 90.808c6.586 0 13.062.355 19.38 1.03a198.778 198.778 0 0 1 15.98 21.932a210.9 210.9 0 0 1 12.17 22.094a210.866 210.866 0 0 1-12.17 22.093c-5.028 7.887-10.4 15.378-15.98 21.932c-6.319.675-12.794 1.03-19.38 1.03c-6.586 0-13.062-.355-19.38-1.03a198.778 198.778 0 0 1-15.98-21.932a210.9 210.9 0 0 1-12.17-22.093a210.866 210.866 0 0 1 12.17-22.094c5.028-7.887 10.4-15.378 15.98-21.932c6.319-.675 12.794-1.03 19.38-1.03Zm0-36.487c-2.073 2.257-4.146 4.636-6.2 7.127a253.73 253.73 0 0 0-6.3 8.269c4.106-.173 8.269-.264 12.5-.264c4.11 0 8.161.082 12.157.239a231.496 231.496 0 0 0-6.158-8.244a224.964 224.964 0 0 0-6-7.127ZM69.8 73.803c-1.265-5.336-2.065-10.379-2.416-15.064c-.687-9.153.673-16.073 4.1-18.05c3.777-2.18 12.334.28 22.375 7.752a139.18 139.18 0 0 1 6.28 5.728c-7.636 8.49-15.065 18.282-21.895 29.022c-8.008 1.166-15.526 2.738-22.301 4.611Zm112.087 45.861c2.318 4.017 4.487 8.003 6.498 11.94c-1.914 3.725-3.942 7.415-6.072 11.048c-1.996-3.797-4.08-7.626-6.254-11.479a214.882 214.882 0 0 0 5.828-11.509ZM128 173.511c2.073-2.257 4.146-4.636 6.2-7.127a253.73 253.73 0 0 0 6.3-8.269c-4.106.173-8.269.264-12.5.264c-4.11 0-8.161-.082-12.157-.239a231.496 231.496 0 0 0 6.158 8.244a224.964 224.964 0 0 0 6 7.127ZM59.2 0h3.5l-.5 4.5h3l-4 8l.5-4.5h-3l4-8Z"></path><circle cx="128" cy="113.669" r="17.069" fill="#00D8FF"></circle></svg>
